<svg width="150" height="150" viewBox="0 0 150 150" fill="none" xmlns="http://www.w3.org/2000/svg">
<path d="M0 25C0 11.1929 11.1929 0 25 0H125C138.807 0 150 11.1929 150 25V125C150 138.807 138.807 150 125 150H0V25Z" fill="url(#paint0_linear_182_4)"/>
<path d="M69.1911 116L69.2271 115.001C69.2204 115 69.2137 115 69.207 115C69.2005 115 69.194 115 69.1874 115L69.1911 116ZM68.3206 114.876C68.32 114.876 68.3193 114.876 68.3187 114.875L68.0828 115.847L68.3246 114.877L68.3206 114.876ZM56.5789 112.981L56.8255 112.012C56.825 112.011 56.8246 112.011 56.8241 112.011L56.8207 112.01L56.5789 112.981ZM54.0591 110.579C54.0582 110.579 54.0572 110.578 54.0562 110.577L53.4067 111.337L54.0619 110.582L54.0591 110.579ZM44.7693 103.846L45.4903 103.153C45.4804 103.143 45.4706 103.133 45.4609 103.122L45.4245 103.091L44.7693 103.846ZM70.0554 107.912C70.0556 107.912 70.0558 107.912 70.056 107.912L70.0569 107.912L70.2995 106.942L70.0554 107.912ZM50.1508 97.6444L50.1877 97.6766C50.1996 97.6849 50.2113 97.6933 50.2231 97.7017L50.8079 96.8906L50.1508 97.6444ZM93.6386 55.2636C93.795 55.2636 93.9493 55.2269 94.089 55.1564L102.638 50.8438C102.64 50.8428 102.642 50.8418 102.644 50.8409C104.209 50.0797 106.009 49.9556 107.664 50.495C109.321 51.0347 110.703 52.1967 111.519 53.7357C111.52 53.7365 111.52 53.7373 111.52 53.7381L120.848 71.5979C120.867 71.6587 120.891 71.7179 120.921 71.7745C121.331 72.5546 121.581 73.409 121.655 74.2872C121.73 75.1653 121.628 76.0496 121.356 76.8879C121.084 77.7262 120.647 78.5015 120.07 79.1682C119.494 79.8349 118.79 80.3795 118 80.7699L117.995 80.7721L109.664 84.9379C109.503 85.0184 109.366 85.1409 109.269 85.2924L105.375 91.3621L105.304 91.4691L105.283 91.5013L105.276 91.5078C105.237 91.5467 105.202 91.5888 105.17 91.6337L105.05 91.8007C104.994 91.8376 104.942 91.8802 104.894 91.9282L90.8294 105.993L90.8288 105.993C89.5777 107.247 87.8803 107.952 86.1095 107.955C85.5734 107.954 85.0396 107.887 84.5199 107.756L84.5175 107.755L62.3551 102.215C62.3545 102.215 62.3539 102.214 62.3533 102.214C61.4592 101.986 60.621 101.578 59.8897 101.015L59.8897 101.015L59.8798 101.008L59.7501 100.911L40.8538 84.9537C40.7937 84.9029 40.7277 84.8594 40.6574 84.824L31.6759 80.3142L31.671 80.3117C30.8814 79.9207 30.178 79.3757 29.6022 78.7087C29.0268 78.0421 28.5905 77.2672 28.3189 76.4295C28.0499 75.5902 27.9495 74.7061 28.0237 73.8279C28.0978 72.9496 28.345 72.0948 28.7509 71.3125C28.7511 71.3121 28.7513 71.3117 28.7515 71.3113L38.1496 53.3174C38.15 53.3166 38.1504 53.3158 38.1508 53.3151C38.9659 51.7768 40.3493 50.6173 42.0064 50.0836C43.6639 49.5497 45.4644 49.684 47.0243 50.4578C47.0248 50.458 47.0252 50.4582 47.0256 50.4584L54.9725 54.4319C55.2054 54.5483 55.4745 54.5693 55.7227 54.4904L72.0605 49.2972C72.123 49.2914 72.1848 49.2798 72.2452 49.2624C73.7771 48.8213 75.4158 48.9391 76.8689 49.5948C76.8691 49.5949 76.8693 49.595 76.8695 49.5951L89.1744 55.1743C89.3041 55.2332 89.4449 55.2636 89.5874 55.2636H93.6386ZM100.541 83.6601C100.769 83.8258 101.056 83.8876 101.332 83.8305C101.608 83.7734 101.847 83.6025 101.99 83.36L102.487 82.5192C102.663 82.2214 102.673 81.8538 102.513 81.5473L92.805 62.9729C92.6325 62.643 92.291 62.4361 91.9187 62.4361H81.3321C81.0669 62.4361 80.8125 62.5415 80.625 62.729L67.3631 75.9909C67.1592 76.1948 67.0533 76.4766 67.0724 76.7643C67.0914 77.0519 67.2337 77.3173 67.4627 77.4924L68.1124 77.9893L68.1124 77.9893L68.1229 77.9971C69.621 79.112 71.4387 79.7142 73.3061 79.7142C75.1736 79.7142 76.9913 79.112 78.4894 77.9971L78.4924 77.9949L83.3844 74.3259L83.3859 74.3248C84.0007 73.8619 84.7482 73.6091 85.5177 73.6037C86.2873 73.5983 87.0382 73.8407 87.6595 74.2949L87.6617 74.2965L100.541 83.6601ZM45.1691 57.5367C44.6809 57.2903 44.0854 57.4817 43.8321 57.9663L35.8444 73.2539C35.7205 73.4911 35.6968 73.7681 35.7787 74.0229C35.8605 74.2777 36.0412 74.4891 36.2801 74.6097L40.2931 76.6353C40.7812 76.8817 41.3768 76.6903 41.63 76.2057L49.6177 60.9181C49.7417 60.6809 49.7654 60.4039 49.6835 60.1491C49.6016 59.8943 49.421 59.6829 49.182 59.5623L45.1691 57.5367ZM85.4083 100.6C85.7491 100.685 86.1096 100.585 86.3579 100.336L96.0273 90.6671C96.2342 90.4602 96.3401 90.1729 96.3171 89.8812C96.294 89.5894 96.1443 89.3224 95.9074 89.1506L86.1616 82.0801C85.8058 81.8219 85.3231 81.8264 84.9722 82.0912L82.8013 83.7289C82.8001 83.7298 82.7988 83.7308 82.7975 83.7317C80.0497 85.7625 76.723 86.8584 73.3061 86.8584C69.8898 86.8584 66.5636 85.7628 63.8161 83.7327L61.7573 82.1695L61.7573 82.1694L61.7474 82.1621C60.9828 81.5962 60.3495 80.8719 59.8907 80.0386C59.4319 79.2053 59.1584 78.2828 59.0891 77.3341C59.0198 76.3854 59.1561 75.4329 59.4889 74.5418C59.8217 73.6506 60.343 72.8419 61.0172 72.1708L61.0188 72.1692L75.0452 58.1429C75.2725 57.9156 75.3766 57.5929 75.3251 57.2756C75.2737 56.9583 75.0728 56.6851 74.7853 56.5413L74.4795 56.3884C74.247 56.2722 73.9784 56.251 73.7305 56.3295L57.7933 61.3744C57.5411 61.4542 57.3308 61.6307 57.2085 61.8651L47.6156 80.2484C47.399 80.6634 47.4993 81.1731 47.857 81.4751L64.0618 95.1574C64.1785 95.256 64.3162 95.3265 64.4644 95.3635L85.4083 100.6ZM108.04 76.5879C108.292 77.0699 108.883 77.2622 109.37 77.0209L113.383 75.0335C113.624 74.9141 113.807 74.7027 113.89 74.447C113.973 74.1912 113.95 73.9127 113.825 73.6743L105.838 58.3868C105.586 57.9047 104.995 57.7124 104.508 57.9537L100.495 59.9411C100.254 60.0605 100.071 60.2719 99.9875 60.5277C99.9042 60.7834 99.9275 61.0619 100.052 61.3003L108.04 76.5879Z" fill="#EDF6F9" stroke="url(#paint1_linear_182_4)" stroke-width="2" stroke-linejoin="round"/>
<defs>
<linearGradient id="paint0_linear_182_4" x1="75" y1="0" x2="75" y2="150" gradientUnits="userSpaceOnUse">
<stop stop-color="#006D77"/>
<stop offset="1" stop-color="#0199A7"/>
</linearGradient>
<linearGradient id="paint1_linear_182_4" x1="75" y1="-0.500002" x2="75" y2="150" gradientUnits="userSpaceOnUse">
<stop stop-color="#006D77"/>
<stop offset="1" stop-color="#0199A7"/>
</linearGradient>
</defs>
</svg>
