<svg width="150" height="150" viewBox="0 0 150 150" fill="none" xmlns="http://www.w3.org/2000/svg">
<path d="M0 25C0 11.1929 11.1929 0 25 0H125C138.807 0 150 11.1929 150 25V125C150 138.807 138.807 150 125 150H0V25Z" fill="url(#paint0_linear_182_5)"/>
<path d="M70.875 68.4375C70.875 67.8573 71.1055 67.3009 71.5157 66.8907C71.9259 66.4805 72.4823 66.25 73.0625 66.25H88.375C88.9552 66.25 89.5116 66.4805 89.9218 66.8907C90.332 67.3009 90.5625 67.8573 90.5625 68.4375C90.5625 69.0177 90.332 69.5741 89.9218 69.9843C89.5116 70.3945 88.9552 70.625 88.375 70.625H73.0625C72.4823 70.625 71.9259 70.3945 71.5157 69.9843C71.1055 69.5741 70.875 69.0177 70.875 68.4375ZM70.875 81.5625C70.875 80.9823 71.1055 80.4259 71.5157 80.0157C71.9259 79.6055 72.4823 79.375 73.0625 79.375H88.375C88.9552 79.375 89.5116 79.6055 89.9218 80.0157C90.332 80.4259 90.5625 80.9823 90.5625 81.5625C90.5625 82.1427 90.332 82.6991 89.9218 83.1093C89.5116 83.5195 88.9552 83.75 88.375 83.75H73.0625C72.4823 83.75 71.9259 83.5195 71.5157 83.1093C71.1055 82.6991 70.875 82.1427 70.875 81.5625ZM70.875 94.6875C70.875 94.1073 71.1055 93.5509 71.5157 93.1407C71.9259 92.7305 72.4823 92.5 73.0625 92.5H88.375C88.9552 92.5 89.5116 92.7305 89.9218 93.1407C90.332 93.5509 90.5625 94.1073 90.5625 94.6875C90.5625 95.2677 90.332 95.8241 89.9218 96.2343C89.5116 96.6445 88.9552 96.875 88.375 96.875H73.0625C72.4823 96.875 71.9259 96.6445 71.5157 96.2343C71.1055 95.8241 70.875 95.2677 70.875 94.6875ZM66.5 68.4375C66.5 69.3077 66.1543 70.1423 65.5389 70.7577C64.9236 71.373 64.089 71.7188 63.2188 71.7188C62.3485 71.7188 61.5139 71.373 60.8986 70.7577C60.2832 70.1423 59.9375 69.3077 59.9375 68.4375C59.9375 67.5673 60.2832 66.7327 60.8986 66.1173C61.5139 65.502 62.3485 65.1562 63.2188 65.1562C64.089 65.1562 64.9236 65.502 65.5389 66.1173C66.1543 66.7327 66.5 67.5673 66.5 68.4375ZM66.5 81.5625C66.5 82.4327 66.1543 83.2673 65.5389 83.8827C64.9236 84.498 64.089 84.8438 63.2188 84.8438C62.3485 84.8438 61.5139 84.498 60.8986 83.8827C60.2832 83.2673 59.9375 82.4327 59.9375 81.5625C59.9375 80.6923 60.2832 79.8577 60.8986 79.2423C61.5139 78.627 62.3485 78.2812 63.2188 78.2812C64.089 78.2812 64.9236 78.627 65.5389 79.2423C66.1543 79.8577 66.5 80.6923 66.5 81.5625ZM63.2188 97.9688C64.089 97.9688 64.9236 97.623 65.5389 97.0077C66.1543 96.3923 66.5 95.5577 66.5 94.6875C66.5 93.8173 66.1543 92.9827 65.5389 92.3673C64.9236 91.752 64.089 91.4062 63.2188 91.4062C62.3485 91.4062 61.5139 91.752 60.8986 92.3673C60.2832 92.9827 59.9375 93.8173 59.9375 94.6875C59.9375 95.5577 60.2832 96.3923 60.8986 97.0077C61.5139 97.623 62.3485 97.9688 63.2188 97.9688ZM62.4969 44.375C62.9494 43.095 63.7879 41.9868 64.8966 41.2032C66.0053 40.4197 67.3298 39.9993 68.6875 40H81.8125C83.1702 39.9993 84.4947 40.4197 85.6034 41.2032C86.7121 41.9868 87.5506 43.095 88.0031 44.375H94.9375C96.678 44.375 98.3472 45.0664 99.5779 46.2971C100.809 47.5278 101.5 49.197 101.5 50.9375V103.438C101.5 105.178 100.809 106.847 99.5779 108.078C98.3472 109.309 96.678 110 94.9375 110H55.5625C53.822 110 52.1528 109.309 50.9221 108.078C49.6914 106.847 49 105.178 49 103.438V50.9375C49 49.197 49.6914 47.5278 50.9221 46.2971C52.1528 45.0664 53.822 44.375 55.5625 44.375H62.4969ZM68.6875 44.375C68.1073 44.375 67.5509 44.6055 67.1407 45.0157C66.7305 45.4259 66.5 45.9823 66.5 46.5625C66.5 47.1427 66.7305 47.6991 67.1407 48.1093C67.5509 48.5195 68.1073 48.75 68.6875 48.75H81.8125C82.3927 48.75 82.9491 48.5195 83.3593 48.1093C83.7695 47.6991 84 47.1427 84 46.5625C84 45.9823 83.7695 45.4259 83.3593 45.0157C82.9491 44.6055 82.3927 44.375 81.8125 44.375H68.6875ZM62.4969 48.75H55.5625C54.9823 48.75 54.4259 48.9805 54.0157 49.3907C53.6055 49.8009 53.375 50.3573 53.375 50.9375V103.438C53.375 104.018 53.6055 104.574 54.0157 104.984C54.4259 105.395 54.9823 105.625 55.5625 105.625H94.9375C95.5177 105.625 96.0741 105.395 96.4843 104.984C96.8945 104.574 97.125 104.018 97.125 103.438V50.9375C97.125 50.3573 96.8945 49.8009 96.4843 49.3907C96.0741 48.9805 95.5177 48.75 94.9375 48.75H88.0031C87.5506 50.03 86.7121 51.1382 85.6034 51.9218C84.4947 52.7053 83.1702 53.1257 81.8125 53.125H68.6875C67.3298 53.1257 66.0053 52.7053 64.8966 51.9218C63.7879 51.1382 62.9494 50.03 62.4969 48.75Z" fill="#EDF6F9" stroke="#EDF6F9"/>
<defs>
<linearGradient id="paint0_linear_182_5" x1="75" y1="0" x2="75" y2="150" gradientUnits="userSpaceOnUse">
<stop stop-color="#006D77"/>
<stop offset="1" stop-color="#0199A7"/>
</linearGradient>
</defs>
</svg>
