<svg width="150" height="150" viewBox="0 0 150 150" fill="none" xmlns="http://www.w3.org/2000/svg">
<path d="M0 25C0 11.1929 11.1929 0 25 0H125C138.807 0 150 11.1929 150 25V125C150 138.807 138.807 150 125 150H0V25Z" fill="url(#paint0_linear_182_3)"/>
<path d="M61.0633 72.3077C57.0731 72.3077 53.2463 70.8894 50.4248 68.3649C47.6032 65.8404 46.0181 62.4164 46.0181 58.8462V48.0769C46.0181 47.3629 46.3351 46.6781 46.8994 46.1732C47.4637 45.6683 48.2291 45.3846 49.0271 45.3846H52.0362C52.8342 45.3846 53.5996 45.101 54.1639 44.5961C54.7282 44.0912 55.0452 43.4064 55.0452 42.6923C55.0452 41.9783 54.7282 41.2935 54.1639 40.7886C53.5996 40.2837 52.8342 40 52.0362 40H49.0271C46.633 40 44.3369 40.851 42.644 42.3657C40.9511 43.8804 40 45.9348 40 48.0769V58.8462C40.0039 61.8878 40.8328 64.8831 42.4157 67.5748C43.9985 70.2666 46.2879 72.5744 49.0873 74.3C51.7769 76.4216 53.9581 79.0089 55.4993 81.9055C57.0404 84.8022 57.9096 87.9483 58.0543 91.1538C58.0543 96.1522 60.2735 100.946 64.2236 104.48C68.1738 108.014 73.5313 110 79.1176 110C84.704 110 90.0615 108.014 94.0117 104.48C97.9618 100.946 100.181 96.1522 100.181 91.1538V88.0846C103.017 87.4293 105.49 85.8709 107.134 83.7015C108.778 81.5321 109.481 78.9007 109.112 76.3004C108.743 73.7001 107.327 71.3096 105.129 69.5768C102.93 67.8441 100.101 66.8881 97.1719 66.8881C94.2424 66.8881 91.4134 67.8441 89.2153 69.5768C87.0172 71.3096 85.6008 73.7001 85.2317 76.3004C84.8625 78.9007 85.566 81.5321 87.2102 83.7015C88.8544 85.8709 91.3264 87.4293 94.1629 88.0846V91.1538C94.1629 94.7241 92.5778 98.1481 89.7562 100.673C86.9347 103.197 83.1079 104.615 79.1176 104.615C75.1274 104.615 71.3006 103.197 68.479 100.673C65.6575 98.1481 64.0724 94.7241 64.0724 91.1538C64.2247 87.9443 65.1033 84.7958 66.6549 81.8989C68.2065 79.002 70.399 76.4169 73.0995 74.3C75.8878 72.5684 78.1655 70.258 79.7377 67.5666C81.3098 64.8752 82.1296 61.883 82.1267 58.8462V48.0769C82.1267 45.9348 81.1756 43.8804 79.4827 42.3657C77.7898 40.851 75.4937 40 73.0995 40H70.0905C69.2924 40 68.5271 40.2837 67.9628 40.7886C67.3985 41.2935 67.0814 41.9783 67.0814 42.6923C67.0814 43.4064 67.3985 44.0912 67.9628 44.5961C68.5271 45.101 69.2924 45.3846 70.0905 45.3846H73.0995C73.8976 45.3846 74.663 45.6683 75.2273 46.1732C75.7916 46.6781 76.1086 47.3629 76.1086 48.0769V58.8462C76.1086 60.6139 75.7194 62.3644 74.9633 63.9977C74.2073 65.6309 73.099 67.1149 71.7019 68.3649C70.3049 69.6149 68.6463 70.6065 66.8209 71.283C64.9955 71.9595 63.0391 72.3077 61.0633 72.3077ZM97.1719 83.0769C95.5758 83.0769 94.0451 82.5096 92.9165 81.4998C91.7879 80.49 91.1538 79.1204 91.1538 77.6923C91.1538 76.2642 91.7879 74.8946 92.9165 73.8848C94.0451 72.875 95.5758 72.3077 97.1719 72.3077C98.768 72.3077 100.299 72.875 101.427 73.8848C102.556 74.8946 103.19 76.2642 103.19 77.6923C103.19 79.1204 102.556 80.49 101.427 81.4998C100.299 82.5096 98.768 83.0769 97.1719 83.0769Z" fill="#EDF6F9"/>
<path d="M61.0633 72.3077C57.0731 72.3077 53.2463 70.8894 50.4248 68.3649C47.6032 65.8404 46.0181 62.4164 46.0181 58.8462V48.0769C46.0181 47.3629 46.3351 46.6781 46.8994 46.1732C47.4637 45.6683 48.2291 45.3846 49.0271 45.3846H52.0362C52.8342 45.3846 53.5996 45.101 54.1639 44.5961C54.7282 44.0912 55.0452 43.4064 55.0452 42.6923C55.0452 41.9783 54.7282 41.2935 54.1639 40.7886C53.5996 40.2837 52.8342 40 52.0362 40H49.0271C46.633 40 44.3369 40.851 42.644 42.3657C40.9511 43.8804 40 45.9348 40 48.0769V58.8462C40.0039 61.8878 40.8328 64.8831 42.4157 67.5748C43.9985 70.2666 46.2879 72.5744 49.0873 74.3C51.7769 76.4216 53.9581 79.0088 55.4993 81.9055C57.0404 84.8022 57.9096 87.9483 58.0543 91.1538C58.0543 96.1522 60.2735 100.946 64.2236 104.48C68.1738 108.014 73.5313 110 79.1176 110C84.704 110 90.0615 108.014 94.0117 104.48C97.9618 100.946 100.181 96.1522 100.181 91.1538V88.0846C103.017 87.4293 105.49 85.8709 107.134 83.7015C108.778 81.5321 109.481 78.9007 109.112 76.3004C108.743 73.7001 107.327 71.3096 105.129 69.5768C102.93 67.8441 100.101 66.8881 97.1719 66.8881C94.2424 66.8881 91.4134 67.8441 89.2153 69.5768C87.0172 71.3096 85.6008 73.7001 85.2317 76.3004C84.8625 78.9007 85.566 81.5321 87.2102 83.7015C88.8544 85.8709 91.3264 87.4293 94.1629 88.0846V91.1538C94.1629 94.7241 92.5778 98.1481 89.7562 100.673C86.9347 103.197 83.1079 104.615 79.1176 104.615C75.1274 104.615 71.3006 103.197 68.479 100.673C65.6575 98.1481 64.0724 94.7241 64.0724 91.1538C64.2247 87.9443 65.1033 84.7958 66.6549 81.8989C68.2065 79.002 70.399 76.4169 73.0995 74.3C75.8878 72.5684 78.1655 70.258 79.7377 67.5666C81.3098 64.8752 82.1296 61.883 82.1267 58.8462V48.0769C82.1267 45.9348 81.1756 43.8804 79.4827 42.3657C77.7898 40.851 75.4937 40 73.0995 40H70.0905C69.2924 40 68.5271 40.2837 67.9628 40.7886C67.3985 41.2935 67.0814 41.9783 67.0814 42.6923C67.0814 43.4064 67.3985 44.0912 67.9628 44.5961C68.5271 45.101 69.2924 45.3846 70.0905 45.3846H73.0995C73.8976 45.3846 74.663 45.6683 75.2273 46.1732C75.7916 46.6781 76.1086 47.3629 76.1086 48.0769V58.8462C76.1086 60.6139 75.7194 62.3644 74.9633 63.9977C74.2073 65.6309 73.099 67.1149 71.7019 68.3649C70.3049 69.6149 68.6463 70.6065 66.8209 71.283C64.9955 71.9595 63.0391 72.3077 61.0633 72.3077M97.1719 83.0769C95.5758 83.0769 94.0451 82.5096 92.9165 81.4998C91.7879 80.49 91.1538 79.1204 91.1538 77.6923C91.1538 76.2642 91.7879 74.8946 92.9165 73.8848C94.0451 72.875 95.5758 72.3077 97.1719 72.3077C98.768 72.3077 100.299 72.875 101.427 73.8848C102.556 74.8946 103.19 76.2642 103.19 77.6923C103.19 79.1204 102.556 80.49 101.427 81.4998C100.299 82.5096 98.768 83.0769 97.1719 83.0769Z" stroke="#EDF6F9"/>
<defs>
<linearGradient id="paint0_linear_182_3" x1="75" y1="0" x2="75" y2="150" gradientUnits="userSpaceOnUse">
<stop stop-color="#006D77"/>
<stop offset="1" stop-color="#0199A7"/>
</linearGradient>
</defs>
</svg>
