<svg width="136" height="41" viewBox="0 0 136 41" fill="none" xmlns="http://www.w3.org/2000/svg">
<path fill-rule="evenodd" clip-rule="evenodd" d="M20.0442 27.426H25.962C25.962 34.5951 20.15 40.407 12.981 40.407C5.81192 40.407 0 34.5951 0 27.426C0 20.2569 5.81192 14.445 12.981 14.445V20.3628C9.08018 20.3628 5.91776 23.5252 5.91776 27.426C5.91776 31.3268 9.08018 34.489 12.981 34.489C16.8818 34.489 20.0442 31.3268 20.0442 27.426V27.426Z" fill="#006D77"/>
<path fill-rule="evenodd" clip-rule="evenodd" d="M14.7628 14.445H19.9692V9.23859H25.8797V14.445H31.0861V20.3555H25.8797V25.5619H19.9692V20.3555H14.7628V14.445Z" fill="#1CBCCE"/>
<path d="M19.9691 1.00136e-05L19.9691 7.45709L25.8795 7.45709L25.8795 1.00136e-05L19.9691 1.00136e-05Z" fill="#006D77"/>
<path d="M55.0125 36.6633C52.5004 39.1592 49.434 40.4067 45.8127 40.4067C42.1917 40.4067 39.1331 39.1589 36.6375 36.6633C34.1416 34.1677 32.894 31.1091 32.894 27.488C32.894 23.8667 34.1418 20.8084 36.6375 18.3125C39.1331 15.8167 42.1917 14.5691 45.8127 14.5691C49.434 14.5691 52.5006 15.8169 55.0125 18.3125C57.5246 20.8081 58.7807 23.8667 58.7807 27.488C58.7807 31.1091 57.5246 34.1677 55.0125 36.6633V36.6633ZM41.0905 32.3326C42.3465 33.605 43.9206 34.241 45.8127 34.241C47.7048 34.241 49.2872 33.605 50.5595 32.3326C51.8318 31.0603 52.4678 29.4455 52.4678 27.488C52.4678 25.5306 51.8318 23.9158 50.5595 22.6435C49.2872 21.3711 47.7048 20.7351 45.8127 20.7351C43.9206 20.7351 42.3465 21.3711 41.0905 22.6435C39.8344 23.9158 39.2064 25.5306 39.2064 27.488C39.2064 29.4455 39.8344 31.0603 41.0905 32.3326V32.3326Z" fill="#162F3D"/>
<path d="M74.8803 40.4067C71.194 40.4067 68.1191 39.1669 65.656 36.6876C63.193 34.2082 61.9614 31.1416 61.9614 27.4878C61.9614 23.8339 63.193 20.7673 65.656 18.288C68.1191 15.8086 71.194 14.5688 74.8803 14.5688C77.2619 14.5688 79.4315 15.1398 81.3889 16.2815C83.3463 17.4233 84.8305 18.9568 85.8419 20.8814L80.41 24.0621C79.9206 23.0508 79.1785 22.2516 78.1834 21.6643C77.1883 21.0771 76.0711 20.7836 74.8313 20.7836C72.9392 20.7836 71.3731 21.4116 70.1336 22.6677C68.8938 23.9238 68.274 25.5304 68.274 27.4878C68.274 29.4124 68.8938 31.003 70.1336 32.2588C71.3734 33.5149 72.9392 34.1427 74.8313 34.1427C76.1036 34.1427 77.2373 33.8572 78.2324 33.2864C79.2275 32.7154 79.9697 31.9243 80.4591 30.9129L85.94 34.0448C84.8633 35.9694 83.3465 37.511 81.3889 38.6692C79.4315 39.8272 77.2621 40.4065 74.8803 40.4065V40.4067Z" fill="#162F3D"/>
<path d="M94.5522 39.1344C93.7365 39.9501 92.7579 40.3579 91.6159 40.3579C90.4742 40.3579 89.4954 39.9501 88.6797 39.1344C87.864 38.3187 87.4564 37.3401 87.4564 36.1982C87.4564 35.0564 87.8643 34.0776 88.6797 33.2622C89.4954 32.4465 90.474 32.0386 91.6159 32.0386C92.7577 32.0386 93.7365 32.4465 94.5522 33.2622C95.3679 34.0779 95.7757 35.0564 95.7757 36.1982C95.7757 37.3401 95.3679 38.3187 94.5522 39.1344Z" fill="#162F3D"/>
<path d="M104.192 12.3179C103.148 12.3179 102.243 11.9346 101.477 11.168C100.71 10.4013 100.327 9.49605 100.327 8.45216C100.327 7.40828 100.71 6.49476 101.477 5.71185C102.243 4.92868 103.148 4.53735 104.192 4.53735C105.269 4.53735 106.191 4.92893 106.957 5.71185C107.724 6.49476 108.107 7.40828 108.107 8.45216C108.107 9.49605 107.724 10.4013 106.957 11.168C106.191 11.9346 105.269 12.3179 104.192 12.3179ZM101.06 39.7216V15.2539H107.373V39.7216H101.06Z" fill="#162F3D"/>
<path d="M126.751 14.5691C129.426 14.5691 131.637 15.4661 133.382 17.2606C135.127 19.0549 136 21.5343 136 24.6987V39.7216H129.687V25.4816C129.687 23.8505 129.247 22.6027 128.366 21.7382C127.485 20.8737 126.311 20.4413 124.843 20.4413C123.212 20.4413 121.907 20.947 120.928 21.9584C119.949 22.9697 119.46 24.4868 119.46 26.5095V39.7219H113.147V15.2542H119.46V17.9945C120.993 15.7108 123.424 14.5691 126.751 14.5691V14.5691Z" fill="#162F3D"/>
</svg>
